<?xml version="1.0" encoding="UTF-8" standalone="no"?>
<svg
   xmlns:dc="http://purl.org/dc/elements/1.1/"
   xmlns:cc="http://creativecommons.org/ns#"
   xmlns:rdf="http://www.w3.org/1999/02/22-rdf-syntax-ns#"
   xmlns:svg="http://www.w3.org/2000/svg"
   xmlns="http://www.w3.org/2000/svg"
   xmlns:sodipodi="http://sodipodi.sourceforge.net/DTD/sodipodi-0.dtd"
   xmlns:inkscape="http://www.inkscape.org/namespaces/inkscape"
   inkscape:version="1.0 (4035a4fb49, 2020-05-01)"
   height="153.84"
   width="153.84"
   sodipodi:docname="test.svg"
   id="svg108"
   version="1.1"
   viewBox="0 0 153.83999 153.84">
  <metadata
     id="metadata112">
    <rdf:RDF>
      <cc:Work
         rdf:about="">
        <dc:format>image/svg+xml</dc:format>
        <dc:type
           rdf:resource="http://purl.org/dc/dcmitype/StillImage" />
        <dc:title></dc:title>
      </cc:Work>
    </rdf:RDF>
  </metadata>
  <sodipodi:namedview
     inkscape:current-layer="svg108"
     inkscape:window-maximized="1"
     inkscape:window-y="868"
     inkscape:window-x="0"
     inkscape:cy="88.369406"
     inkscape:cx="114.57688"
     inkscape:zoom="3.4936309"
     showgrid="false"
     id="namedview110"
     inkscape:window-height="1024"
     inkscape:window-width="1920"
     inkscape:pageshadow="2"
     inkscape:pageopacity="0"
     guidetolerance="10"
     gridtolerance="10"
     objecttolerance="10"
     borderopacity="1"
     bordercolor="#666666"
     pagecolor="#ffffff" />
  <defs
     id="defs98">
    <style
       id="style80">.cls-1{fill:url(#linear-gradient);}.cls-2{fill:#fff;}.cls-3{fill:url(#linear-gradient-2);}.cls-4{fill:#181818;}</style>
    <linearGradient
       gradientUnits="userSpaceOnUse"
       gradientTransform="rotate(-45,6021.7211,3450.5415)"
       y2="-3138.5801"
       x2="4280.54"
       y1="-3138.5801"
       x1="4126.7002"
       id="linear-gradient">
      <stop
         id="stop82"
         stop-color="#00d0ad"
         offset="0" />
      <stop
         id="stop84"
         stop-color="#434fa0"
         offset="0.52" />
      <stop
         id="stop86"
         stop-color="#834ac9"
         offset="0.79" />
      <stop
         id="stop88"
         stop-color="#af46e5"
         offset="1" />
    </linearGradient>
    <linearGradient
       gradientUnits="userSpaceOnUse"
       y2="0.02"
       x2="77.82"
       y1="153.84"
       x1="77.82"
       id="linear-gradient-2">
      <stop
         id="stop91"
         stop-color="#2a0069"
         offset="0.12" />
      <stop
         id="stop93"
         stop-opacity="0.45"
         stop-color="#4a389b"
         offset="0.54" />
      <stop
         id="stop95"
         stop-opacity="0"
         stop-color="#6c73cf"
         offset="0.88" />
    </linearGradient>
  </defs>
  <g
     data-name="Layer 2"
     id="Layer_2">
    <g
       data-name="Layer 1"
       id="Layer_1-2">
      <path
         id="path100"
         d="m 22.53,22.53 a 76.92,76.92 0 1 0 108.78,0 76.92,76.92 0 0 0 -108.78,0 z M 105,105 a 39.68,39.68 0 1 1 0,-56.11 39.68,39.68 0 0 1 0,56.11 z"
         class="cls-1" />
      <path
         id="path102"
         d="m 42.21,42.23 a 9,9 0 1 0 -12.69,0 9,9 0 0 0 12.69,0 z"
         class="cls-2" />
      <path
         id="path104"
         d="m 153.83,77.32 c 0,0.49 0,1 0,1.45 0,1.39 -0.11,2.77 -0.21,4.15 q 0,0.69 -0.12,1.38 c 0,0.57 -0.12,1.14 -0.19,1.7 -0.07,0.56 -0.14,1.13 -0.22,1.7 -0.08,0.57 -0.13,0.87 -0.19,1.3 -0.16,1 -0.33,2 -0.52,2.94 -0.11,0.55 -0.24,1.1 -0.36,1.65 -0.06,0.29 -0.13,0.58 -0.19,0.86 l -0.21,0.87 c -0.11,0.45 -0.23,0.9 -0.34,1.35 -0.11,0.45 -0.25,0.9 -0.37,1.34 -0.12,0.44 -0.3,1.06 -0.46,1.58 -0.46,1.5 -1,3 -1.52,4.47 -0.14,0.35 -0.27,0.69 -0.41,1 -0.14,0.31 -0.32,0.82 -0.49,1.22 a 80,80 0 0 1 -9.77,17 l -0.24,0.33 c -0.47,0.6 -0.94,1.2 -1.42,1.79 l -1,1.16 c -0.16,0.2 -0.33,0.4 -0.51,0.59 l -1,1.14 a 0.94,0.94 0 0 1 -0.17,0.18 c -0.4,0.45 -0.82,0.9 -1.24,1.35 -0.42,0.45 -0.92,0.95 -1.39,1.42 a 76.63,76.63 0 0 1 -56.37,22.5 q -0.86,0 -1.71,-0.06 c -0.53,0 -1,0 -1.58,-0.09 h -0.26 l -1.65,-0.13 h -0.29 l -1.74,-0.19 c -1.22,-0.15 -2.44,-0.32 -3.66,-0.53 l -1.57,-0.28 c -1.77,-0.34 -3.54,-0.74 -5.29,-1.2 l -1,-0.27 L 56,151 h -0.11 -0.13 l -1.41,-0.44 a 88.49,88.49 0 0 1 -14.56,-6.13 l -0.32,-0.18 -1.14,-0.65 c -1.13,-0.65 -2.24,-1.34 -3.35,-2.06 l -1.1,-0.73 -1.07,-0.81 c -0.72,-0.5 -1.43,-1 -2.14,-1.56 l -1.06,-0.81 c -0.7,-0.55 -1.4,-1.11 -2.08,-1.69 l -1,-0.87 -1,-0.9 -1,-0.92 -1,-0.91 -1,-1 c -0.56,-0.56 -1.1,-1.12 -1.64,-1.69 -0.54,-0.57 -1.06,-1.14 -1.58,-1.73 -0.52,-0.59 -1,-1.17 -1.52,-1.76 -0.52,-0.59 -1,-1.19 -1.45,-1.8 -0.45,-0.61 -0.94,-1.21 -1.4,-1.83 -0.46,-0.62 -0.92,-1.27 -1.37,-1.92 q -1.27,-1.86 -2.43,-3.76 -1.16,-1.9 -2.23,-3.92 -1,-2 -2,-4 c -0.3,-0.67 -0.6,-1.35 -0.89,-2 -0.29,-0.65 -0.57,-1.37 -0.84,-2.06 -0.27,-0.69 -0.52,-1.38 -0.77,-2.08 -0.25,-0.7 -0.48,-1.4 -0.71,-2.1 -0.11,-0.35 -0.21,-0.7 -0.32,-1 -0.65,-2.14 -1.17,-4.17 -1.59,-6.07 6.52,29.11 29,39.8 54.75,39.8 a 55.71,55.71 0 0 0 49.51,-29.45 l 2.26,-2.67 c 0.2,-0.26 0.4,-0.52 0.59,-0.79 l 0.58,-0.81 c 0.2,-0.27 0.38,-0.54 0.55,-0.82 0.32,-0.48 0.63,-1 0.92,-1.46 a 37.49,37.49 0 0 0 2.34,-4.54 35.06,35.06 0 0 0 1.36,-3.61 c 0.21,-0.61 0.39,-1.22 0.55,-1.84 0.25,-0.92 0.47,-1.86 0.65,-2.8 0.18,-0.94 0.33,-1.88 0.44,-2.83 a 37.74,37.74 0 0 0 0.29,-4.75 39.43,39.43 0 0 0 -6.54,-21.82 c 0,0 0,0 0,0 a 39.56,39.56 0 0 0 -4.37,-5.49 c 0,0 0,0 0,0 l -0.71,-0.73 a 39.41,39.41 0 0 0 -9.61,-7.08 c -0.86,-0.46 -1.74,-0.88 -2.63,-1.26 a 38.39,38.39 0 0 0 -3.6,-1.36 v 0 a 37.3,37.3 0 0 0 -3.69,-1 40.22,40.22 0 0 0 -8.53,-0.92 c -0.46,0 -0.91,0 -1.37,0 H 75.41 L 77.44,0 h 1.38 l 1.78,0.1 c 0.61,0 1.23,0.06 1.84,0.11 0.61,0.05 1.23,0.09 1.84,0.15 l 1.84,0.2 1.68,0.22 h 0.19 c 0.6,0.08 1.19,0.18 1.79,0.28 0.6,0.1 1.21,0.21 1.82,0.33 l 1.81,0.37 c 0.61,0.13 1.21,0.27 1.81,0.42 0.6,0.15 1.18,0.3 1.77,0.45 v 0 c 0.59,0.17 1.19,0.33 1.78,0.51 0.59,0.18 1.19,0.36 1.78,0.55 l 1.76,0.59 1.74,0.63 c 0.59,0.22 1.18,0.45 1.76,0.69 l 1.3,0.54 c 1.29,0.56 2.58,1.15 3.85,1.77 1.27,0.62 2.24,1.15 3.35,1.76 q 2.48,1.39 4.88,3 c 1.07,0.71 2.12,1.44 3.16,2.2 1.04,0.76 2.06,1.55 3.07,2.38 1.01,0.83 2.24,1.88 3.33,2.88 0.37,0.33 0.73,0.67 1.09,1 0.36,0.33 1,0.91 1.42,1.39 l 0.94,1 c 0.2,0.19 0.38,0.38 0.55,0.57 l 1,1.11 c 0.17,0.17 0.32,0.34 0.46,0.51 l 0.88,1 c 0.92,1.05 1.8,2.13 2.63,3.22 0.4,0.52 0.79,1 1.17,1.55 0.38,0.55 0.75,1 1.12,1.57 0.73,1 1.44,2.12 2.11,3.2 0.34,0.54 0.67,1.08 1,1.63 0.33,0.55 0.61,1 0.91,1.56 a 3.13,3.13 0 0 1 0.19,0.36 c 0.56,1 1.1,2 1.61,3.07 0.28,0.57 0.55,1.13 0.81,1.7 0.26,0.57 0.52,1.14 0.77,1.72 0.5,1.15 1,2.3 1.41,3.47 0.22,0.58 0.43,1.17 0.64,1.76 0.21,0.59 0.4,1.17 0.59,1.76 0.38,1.19 0.74,2.38 1.06,3.57 l 0.3,1.17 a 84.26,84.26 0 0 1 2.42,19.3 z"
         class="cls-3" />
    </g>
  </g>
</svg>
