<svg width="96" height="220" viewBox="0 0 96 220" fill="none" xmlns="http://www.w3.org/2000/svg">
<mask id="mask0" mask-type="alpha" maskUnits="userSpaceOnUse" x="0" y="0" width="384" height="220">
<rect width="384" height="220" fill="url(#paint0_linear)"/>
</mask>
<g mask="url(#mask0)">
<rect width="384" height="220" fill="white"/>
</g>
<g clip-path="url(#clip0)">
<path d="M301.048 167.923C295.855 173.427 287.545 178.133 275.319 180.924C270.925 181.961 267.009 183.397 263.414 184.992C258.14 187.465 253.585 190.416 249.43 193.447C230.094 207.325 217.629 221.603 167.928 186.348C148.192 172.31 140.761 177.335 115.671 171.273C114.952 171.114 114.153 170.874 113.434 170.715C106.482 168.96 100.729 166.487 95.8549 163.456C89.7822 159.628 85.2277 155.002 81.9516 149.817C75.4794 139.528 74.121 127.245 75.3995 115.6C75.8789 111.292 76.7579 107.065 77.7966 103.077C78.4359 100.764 79.0751 98.6901 79.7942 96.7758C82.3512 89.9164 85.5473 84.8914 88.9832 81.0628C89.3827 80.5843 89.8621 80.1057 90.2616 79.7069C90.7411 79.2283 91.2205 78.7498 91.6999 78.3509C103.366 67.9022 117.189 68.2212 122.383 55.8582C136.286 23.0763 167.449 28.8988 188.703 41.9797C233.769 69.6569 239.123 52.2689 272.043 70.8534C332.291 104.912 279.554 109.059 300.809 133.067C309.358 142.639 311.356 156.916 301.048 167.923Z" fill="#C0B1FE" fill-opacity="0.5"/>
<path d="M97.5329 33.1499C97.5329 33.1499 102.966 25.413 111.197 30.9166L116.23 26.1309C116.23 26.1309 111.516 22.5416 100.649 28.9225C93.5377 33.0701 97.5329 33.1499 97.5329 33.1499Z" fill="#00A599"/>
<path d="M92.1794 40.7272C92.1794 40.7272 91.1406 31.7939 106.083 26.2904C106.083 26.2904 100.649 28.9225 99.0511 37.7761L92.1794 40.7272Z" fill="#00C3B9"/>
</g>
<defs>
<linearGradient id="paint0_linear" x1="6.64485" y1="117.972" x2="373.07" y2="117.972" gradientUnits="userSpaceOnUse">
<stop stop-color="#562B98"/>
<stop offset="1" stop-color="#BD74F4"/>
</linearGradient>
<clipPath id="clip0">
<rect width="233" height="214" fill="white" transform="translate(75 3)"/>
</clipPath>
</defs>
</svg>
